<?xml version="1.0" encoding="UTF-8"?>
<svg version="1.1" xmlns="http://www.w3.org/2000/svg" width="612" height="408">
<path d="M0 0 C1.71196326 -0.00524403 3.42392362 -0.01152334 5.13587952 -0.01878357 C8.71238871 -0.02915326 12.28849919 -0.02467619 15.86499023 -0.01000977 C20.42557414 0.00717083 24.9848972 -0.01632563 29.54534054 -0.05149937 C33.07752165 -0.07356569 36.60940536 -0.07200967 40.14163399 -0.06373405 C41.82199041 -0.06291954 43.50236978 -0.06968642 45.18266106 -0.08450508 C56.23910593 -0.16708061 64.18461342 0.96491807 73.28515625 7.69140625 C80.19433525 17.03911902 80.01105991 27.44144601 79.87670898 38.56445312 C79.84763479 41.19334709 79.85615736 43.82023106 79.86914062 46.44921875 C79.86290436 48.14714506 79.85451429 49.84506511 79.84375 51.54296875 C79.84668564 52.31508698 79.84962128 53.0872052 79.85264587 53.88272095 C79.70915851 62.30615269 76.99132315 69.55149444 72.41015625 76.56640625 C71.42015625 77.22640625 70.43015625 77.88640625 69.41015625 78.56640625 C68.96042732 80.99197468 68.96042732 80.99197468 69.04125977 83.85473633 C69.03437637 84.95960892 69.02749298 86.06448151 69.020401 87.20283508 C69.02963844 89.00122078 69.02963844 89.00122078 69.0390625 90.8359375 C69.02167723 93.35872529 69.00409288 95.88151172 68.98632812 98.40429688 C68.97625371 102.3940121 68.97265824 106.38356349 68.97436523 110.37329102 C68.97079881 114.21528058 68.94346169 118.05657187 68.9140625 121.8984375 C68.92224503 123.0912886 68.93042755 124.28413971 68.93885803 125.51313782 C68.86438783 133.78216963 68.86438783 133.78216963 66.5703125 137.74291992 C63.83224836 140.05424463 61.08667628 141.53194313 57.84765625 143.06640625 C57.22560303 143.36482422 56.6035498 143.66324219 55.96264648 143.97070312 C54.11821105 144.85046974 52.26634384 145.71175873 50.41015625 146.56640625 C49.47429687 146.99953125 48.5384375 147.43265625 47.57421875 147.87890625 C45.82317702 148.67818056 44.06919465 149.4710403 42.3125 150.2578125 C39.51822034 151.51768287 36.73745155 152.80423676 33.96118164 154.10327148 C32.67894571 154.70286184 31.39557837 155.30003868 30.11108398 155.89477539 C27.00704767 157.33448294 23.93475577 158.80621003 20.87890625 160.34765625 C19.22375 161.1675 19.22375 161.1675 17.53515625 162.00390625 C16.08496094 162.74447266 16.08496094 162.74447266 14.60546875 163.5 C8.05885436 165.68487253 2.50036148 165.11076094 -3.66430664 162.12792969 C-4.34098389 161.77762695 -5.01766113 161.42732422 -5.71484375 161.06640625 C-6.80236938 160.52935059 -6.80236938 160.52935059 -7.91186523 159.98144531 C-10.15052893 158.86613152 -12.37214128 157.7227832 -14.58984375 156.56640625 C-15.28577637 156.20353516 -15.98170898 155.84066406 -16.69873047 155.46679688 C-19.92745193 153.77258604 -23.1425304 152.05480897 -26.34765625 150.31640625 C-30.05819944 148.31360703 -33.80554175 146.42536162 -37.58984375 144.56640625 C-39.58856323 143.56902544 -41.58567117 142.56850072 -43.58203125 141.56640625 C-44.93729101 140.89141306 -46.29681575 140.22492543 -47.66015625 139.56640625 C-59.41774294 133.84408269 -59.41774294 133.84408269 -62.58984375 128.56640625 C-62.98425293 125.72731018 -62.98425293 125.72731018 -63.00976562 122.40844727 C-63.02567749 121.16358047 -63.04158936 119.91871368 -63.0579834 118.63612366 C-63.05925067 117.28085385 -63.05942751 115.92558264 -63.05859375 114.5703125 C-63.06569759 113.17552891 -63.07339692 111.78074824 -63.08166504 110.38597107 C-63.09510131 107.46483229 -63.09668261 104.54396374 -63.09082031 101.62280273 C-63.0849245 97.8854698 -63.11551202 94.14943612 -63.15593719 90.41235447 C-63.18182942 87.53233395 -63.18469036 84.65262567 -63.18104553 81.77250481 C-63.18273538 80.39501619 -63.19236518 79.01751295 -63.21018982 77.64013863 C-63.34972937 65.52453452 -63.34972937 65.52453452 -60.30249023 62.28222656 C-58.01506009 60.83536678 -56.18055893 59.71624794 -53.59375 58.984375 C-52.86994141 58.77490234 -52.14613281 58.56542969 -51.40039062 58.34960938 C-50.65853516 58.15302734 -49.91667969 57.95644531 -49.15234375 57.75390625 C-48.04536133 57.4300293 -48.04536133 57.4300293 -46.91601562 57.09960938 C-42.66852733 55.91031265 -39.03287918 55.47343917 -34.58984375 55.56640625 C-34.62126465 54.40181885 -34.65268555 53.23723145 -34.68505859 52.03735352 C-34.79434237 47.68217049 -34.86278653 43.32710649 -34.91943359 38.97094727 C-34.94945289 37.09215865 -34.99028258 35.21350836 -35.04248047 33.33520508 C-35.55216431 14.51188108 -35.55216431 14.51188108 -30.08447266 7.81225586 C-28.58984375 6.56640625 -28.58984375 6.56640625 -26.58984375 6.56640625 C-26.58984375 5.90640625 -26.58984375 5.24640625 -26.58984375 4.56640625 C-18.0188905 -0.38516678 -9.59381883 -0.03586306 0 0 Z M-18.58984375 17.56640625 C-22.18422431 21.88871754 -22.02852082 26.01796504 -21.98828125 31.375 C-21.99115143 32.21934097 -21.99402161 33.06368195 -21.99697876 33.93360901 C-21.99901498 35.71461663 -21.99351604 37.49564683 -21.98095703 39.27661133 C-21.96491669 41.99156136 -21.98080992 44.70501831 -22 47.41992188 C-21.9980171 49.15495118 -21.99417245 50.88997956 -21.98828125 52.625 C-21.99435394 53.43142441 -22.00042664 54.23784882 -22.00668335 55.06871033 C-21.94612325 59.96282435 -21.26394502 63.31013525 -18.58984375 67.56640625 C-15.37830083 70.00997152 -12.27473384 69.77694734 -8.33984375 69.69140625 C-6.44234375 69.65015625 -4.54484375 69.60890625 -2.58984375 69.56640625 C-2.58984375 73.52640625 -2.58984375 77.48640625 -2.58984375 81.56640625 C1.06434058 80.65286017 3.42259738 79.58081447 6.66015625 77.75390625 C8.57047807 76.68004037 10.48788248 75.61872792 12.41015625 74.56640625 C12.9853299 74.22934158 13.56050354 73.89227692 14.15310669 73.54499817 C19.2648871 70.71942073 23.28550505 70.01019722 29.07421875 70.09765625 C30.26777481 70.08708191 30.26777481 70.08708191 31.48544312 70.07629395 C34.00234905 70.05442956 36.5181843 70.05722375 39.03515625 70.06640625 C42.3612475 70.07848956 45.68576494 70.06469365 49.01171875 70.03515625 C50.14161728 70.05213562 50.14161728 70.05213562 51.29434204 70.06945801 C56.4681875 70.02016037 59.47167647 68.91604654 63.41015625 65.56640625 C64.72809982 61.61257555 64.57268824 57.8215607 64.578125 53.69921875 C64.5814534 52.82748016 64.5847818 51.95574158 64.58821106 51.05758667 C64.59327324 49.21336393 64.5956196 47.36913203 64.59545898 45.52490234 C64.59764249 42.7091555 64.61579737 39.89380237 64.63476562 37.078125 C64.63770032 35.28515759 64.63968461 33.49218832 64.640625 31.69921875 C64.65140327 30.43961838 64.65140327 30.43961838 64.66239929 29.15457153 C64.64874664 23.10982401 64.64874664 23.10982401 62.41015625 17.56640625 C58.85106658 15.14382563 55.53401207 15.31287461 51.31835938 15.30761719 C50.61218979 15.30411255 49.9060202 15.30060791 49.17845154 15.29699707 C46.84933579 15.28821052 44.52052497 15.29401792 42.19140625 15.30078125 C40.57002708 15.29943371 38.9486483 15.29749244 37.32727051 15.29498291 C33.93119454 15.29203582 30.53522387 15.29631593 27.13916016 15.30566406 C22.78785063 15.31705839 18.43678784 15.31049669 14.08548737 15.29851913 C10.73803857 15.29128932 7.39064819 15.29359362 4.04319763 15.29877472 C2.43883739 15.30010811 0.83447183 15.29847436 -0.7698822 15.29381561 C-3.01274652 15.28873193 -5.25521222 15.29648626 -7.49804688 15.30761719 C-8.77393677 15.30920837 -10.04982666 15.31079956 -11.36437988 15.31243896 C-14.41827684 15.55289738 -16.07512285 15.88424722 -18.58984375 17.56640625 Z M-47.58984375 72.56640625 C-46.74003669 76.40406997 -46.14678876 78.15950207 -42.921875 80.515625 C-41.76042969 81.08925781 -40.59898437 81.66289062 -39.40234375 82.25390625 C-38.43385498 82.74093018 -38.43385498 82.74093018 -37.44580078 83.23779297 C-35.17138899 84.37105115 -32.88198057 85.46945829 -30.58984375 86.56640625 C-28.70563392 87.48157476 -26.82152436 88.39694973 -24.9375 89.3125 C-20.97304291 91.23063839 -16.99739946 93.12248316 -13.01171875 94.99609375 C-9.82727335 96.493816 -6.668228 98.01926002 -3.54296875 99.63671875 C4.14616381 103.51738424 8.62036914 104.45167577 16.7734375 101.796875 C18.56630191 101.15753792 20.34971528 100.49133068 22.125 99.8046875 C26.1838496 98.2747763 30.29006256 96.92075347 34.41015625 95.56640625 C41.1214328 93.34934425 47.79012062 91.04527422 54.41015625 88.56640625 C52.93959619 86.30569051 52.93959619 86.30569051 50.41015625 84.56640625 C47.51677541 84.86434462 45.27639854 85.30653356 42.53515625 86.12890625 C41.84035156 86.31259766 41.14554687 86.49628906 40.4296875 86.68554688 C37.15527551 87.58893926 34.32047985 88.61191535 31.27734375 90.15625 C28.23892938 91.65062001 25.74193979 92.07618289 22.41015625 92.56640625 C19.38057313 93.5486539 16.4008571 94.63230867 13.41015625 95.7265625 C6.916015 97.54458381 2.82031389 96.18204196 -2.96484375 93.06640625 C-4.38789121 92.32787518 -5.81107208 91.58960113 -7.234375 90.8515625 C-7.95705566 90.4714502 -8.67973633 90.09133789 -9.42431641 89.69970703 C-12.81293797 87.92631568 -16.23083397 86.21276941 -19.65234375 84.50390625 C-20.30614014 84.17704834 -20.95993652 83.85019043 -21.63354492 83.51342773 C-26.32762004 81.1753627 -31.03927169 78.87652077 -35.77734375 76.62890625 C-36.96714844 76.06300781 -38.15695313 75.49710937 -39.3828125 74.9140625 C-42.1742883 73.74103065 -44.6088034 73.00991319 -47.58984375 72.56640625 Z " fill="#17415D" transform="translate(285.58984375,124.43359375)"/>
<path d="M0 0 C2.67980529 0.86912604 3.66565308 1.53828283 5.3125 3.8125 C6.2131106 6.67807917 5.9910892 8.16831657 5 11 C2.86505215 13.84659713 1.46456252 14.85173536 -1.9375 15.9375 C-5.58382686 16.01191483 -7.10961238 15.14714509 -10 13 C-11 12 -11 12 -11.3125 8.1875 C-11.25831199 5.1692278 -11.08640108 4.13824172 -9.4375 1.5 C-6.09971339 -0.55402253 -3.85600245 -0.41314312 0 0 Z " fill="#2D4E63" transform="translate(333,159)"/>
<path d="M0 0 C2.99455648 2.04890706 3.83302657 3.50951555 5 6.9375 C5 10 5 10 3.5 12.8125 C0.26058399 15.64698901 -1.72333475 16 -6 16 C-8.9375 15.1875 -8.9375 15.1875 -11 13 C-11.65515064 9.5805734 -11.80965227 6.39495573 -11 3 C-7.53548646 -0.404909 -4.77564031 -0.59695504 0 0 Z " fill="#0F3953" transform="translate(289,159)"/>
<path d="M0 0 C2.66026374 1.94127354 3.76393878 3.34240089 4.875 6.4375 C5.0272951 9.55954946 4.54137619 11.28424195 3 14 C0.35885475 16.15204428 -1.11132645 15.99609381 -4.5625 15.875 C-8 15 -8 15 -9.9375 13.375 C-11.40393519 10.09708604 -11.32275035 7.55025388 -11 4 C-8.06920427 -0.3961936 -5.05353939 -0.51566729 0 0 Z " fill="#25475D" transform="translate(311,159)"/>
<path d="M0 0 C0.66 0.33 1.32 0.66 2 1 C1.67 1.33 1.34 1.66 1 2 C0.89571953 3.81438268 0.86145659 5.6328308 0.85473633 7.45019531 C0.84835648 8.61520569 0.84197662 9.78021606 0.83540344 10.98052979 C0.83429062 12.25023621 0.8331778 13.51994263 0.83203125 14.828125 C0.82870285 16.12441833 0.82537445 17.42071167 0.82194519 18.75628662 C0.81594588 21.50696646 0.81410596 24.25761486 0.81469727 27.00830078 C0.8147986 30.52669122 0.8011795 34.04487856 0.78392506 37.56322098 C0.77009898 40.92235863 0.77071517 44.28145926 0.76953125 47.640625 C0.76234573 48.9022345 0.75516022 50.16384399 0.74775696 51.46368408 C0.75083359 52.6413031 0.75391022 53.81892212 0.75708008 55.03222656 C0.75565506 56.06623596 0.75423004 57.10024536 0.75276184 58.16558838 C1.01126574 61.12915382 1.75589899 63.31298393 3 66 C2.34 66 1.68 66 1 66 C1 65.34 1 64.68 1 64 C0.01 64 -0.98 64 -2 64 C-2 43.21 -2 22.42 -2 1 C-1.34 0.67 -0.68 0.34 0 0 Z " fill="#264356" transform="translate(225,189)"/>
<path d="M0 0 C2.66026374 1.94127354 3.76393878 3.34240089 4.875 6.4375 C5.0272951 9.55954946 4.54137619 11.28424195 3 14 C0.28118711 16.21532902 -1.12730543 15.99136912 -4.6875 15.75 C-5.780625 15.5025 -6.87375 15.255 -8 15 C-8.33 14.34 -8.66 13.68 -9 13 C-6.36 13 -3.72 13 -1 13 C-1.65585189 9.39007621 -1.65585189 9.39007621 -3 6 C-2.34 6 -1.68 6 -1 6 C-0.67 4.68 -0.34 3.36 0 2 C-1.670625 2.309375 -1.670625 2.309375 -3.375 2.625 C-4.57125 2.74875 -5.7675 2.8725 -7 3 C-7.66 2.34 -8.32 1.68 -9 1 C-5.68377419 -0.1054086 -3.47482175 -0.35457365 0 0 Z " fill="#2A495D" transform="translate(311,159)"/>
<path d="M0 0 C2.4375 2 2.4375 2 4 4 C3.67 4.99 3.34 5.98 3 7 C2.34 6.34 1.68 5.68 1 5 C-1.31765729 4.28072705 -3.65095874 3.6090107 -6 3 C-6 3.66 -6 4.32 -6 5 C-6.99 5.33 -7.98 5.66 -9 6 C-9.20970559 10.14093698 -9.20970559 10.14093698 -8 14 C-8.99 13.67 -9.98 13.34 -11 13 C-11.10824843 11.3973218 -11.18570645 9.79254252 -11.25 8.1875 C-11.29640625 7.29417969 -11.3428125 6.40085938 -11.390625 5.48046875 C-11 3 -11 3 -9.203125 1.203125 C-5.96266486 -0.56648798 -3.62687272 -0.45335909 0 0 Z " fill="#4C6473" transform="translate(289,159)"/>
<path d="M0 0 C0.515625 0.2475 1.03125 0.495 1.5625 0.75 C1.5625 1.41 1.5625 2.07 1.5625 2.75 C-3.06002351 5.98576646 -8.38180673 8.26632932 -13.4375 10.75 C-13.7675 9.76 -14.0975 8.77 -14.4375 7.75 C-4.73161765 -0.48529412 -4.73161765 -0.48529412 0 0 Z " fill="#3A556B" transform="translate(303.4375,196.25)"/>
<path d="M0 0 C-0.3125 1.9375 -0.3125 1.9375 -1 4 C-1.99 4.33 -2.98 4.66 -4 5 C-4.33 5.66 -4.66 6.32 -5 7 C-6.98 7 -8.96 7 -11 7 C-11 5.35 -11 3.7 -11 2 C-3.57142857 -1.57142857 -3.57142857 -1.57142857 0 0 Z " fill="#103954" transform="translate(294,165)"/>
<path d="M0 0 C-0.66 0 -1.32 0 -2 0 C-2 0.99 -2 1.98 -2 3 C-4.97 3 -7.94 3 -11 3 C-11.33 3.66 -11.66 4.32 -12 5 C-13.875 5.5625 -13.875 5.5625 -16 6 C-16.99 6.33 -17.98 6.66 -19 7 C-19 7.66 -19 8.32 -19 9 C-20.65 9 -22.3 9 -24 9 C-24 8.34 -24 7.68 -24 7 C-17.70950886 2.80633924 -7.45476499 -2.48492166 0 0 Z " fill="#778B94" transform="translate(248,181)"/>
<path d="M0 0 C-0.33 0.66 -0.66 1.32 -1 2 C-2.32 2 -3.64 2 -5 2 C-5 2.66 -5 3.32 -5 4 C-5.99 4.33 -6.98 4.66 -8 5 C-8 4.34 -8 3.68 -8 3 C-10.31 3 -12.62 3 -15 3 C-15.33 2.01 -15.66 1.02 -16 0 C-14.27185839 -0.19672365 -12.54240803 -0.38196799 -10.8125 -0.5625 C-9.84957031 -0.66691406 -8.88664062 -0.77132812 -7.89453125 -0.87890625 C-5.05766623 -0.99758751 -2.74576329 -0.67765639 0 0 Z " fill="#3E596B" transform="translate(305,227)"/>
<path d="M0 0 C0.66 -0.33 1.32 -0.66 2 -1 C2 0.32 2 1.64 2 3 C3.1446875 3.185625 3.1446875 3.185625 4.3125 3.375 C7 4 7 4 10 6 C7.25436136 7.07353169 6.11620633 7.03945688 3.2734375 6.07421875 C2.31695312 5.61660156 1.36046875 5.15898437 0.375 4.6875 C-1.06746094 4.01267578 -1.06746094 4.01267578 -2.5390625 3.32421875 C-5 2 -5 2 -7 0 C-4.33059475 -1.33470263 -2.86667247 -0.57333449 0 0 Z " fill="#466073" transform="translate(245,196)"/>
<path d="M0 0 C0.33 0.99 0.66 1.98 1 3 C1.66 3 2.32 3 3 3 C2 6 2 6 0.375 7.25 C-2.95194155 8.30061312 -5.62008449 7.64998375 -9 7 C-6.8614515 4.8614515 -5.86724686 4.57344937 -3 4 C-3 3.34 -3 2.68 -3 2 C-2.01 1.34 -1.02 0.68 0 0 Z " fill="#2F4F64" transform="translate(334,167)"/>
<path d="M0 0 C1.32 0.66 2.64 1.32 4 2 C4 3.65 4 5.3 4 7 C4.66 7.33 5.32 7.66 6 8 C3.69 8.33 1.38 8.66 -1 9 C-1.09765625 2.84765625 -1.09765625 2.84765625 -1 1 C-0.67 0.67 -0.34 0.34 0 0 Z " fill="#0E3C59" transform="translate(326,164)"/>
<path d="M0 0 C0.99 0.33 1.98 0.66 3 1 C1.67753846 3.64492308 0.35464102 3.97833787 -2.3125 5.1875 C-3.09238281 5.55230469 -3.87226563 5.91710937 -4.67578125 6.29296875 C-7.28167174 7.08568502 -8.50369093 7.04150643 -11 6 C-11.33 5.34 -11.66 4.68 -12 4 C-11.30132812 3.79503906 -10.60265625 3.59007812 -9.8828125 3.37890625 C-8.97273438 3.10949219 -8.06265625 2.84007812 -7.125 2.5625 C-6.22007812 2.29566406 -5.31515625 2.02882812 -4.3828125 1.75390625 C-2.01724619 1.07386174 -2.01724619 1.07386174 0 0 Z " fill="#516C7B" transform="translate(331,215)"/>
<path d="M0 0 C5.01508715 1.54058233 9.6147081 3.02931839 14 6 C12 7 10 8 8 9 C7.6596875 8.071875 7.6596875 8.071875 7.3125 7.125 C5.61583557 4.3780195 3.94748289 4.13364727 1 3 C0.67 2.01 0.34 1.02 0 0 Z " fill="#586F7C" transform="translate(274,220)"/>
<path d="M0 0 C1.32 0.66 2.64 1.32 4 2 C3.67 2.33 3.34 2.66 3 3 C2.76807135 4.51469448 2.58784762 6.03754562 2.4375 7.5625 C2.35371094 8.38878906 2.26992188 9.21507812 2.18359375 10.06640625 C2.12300781 10.70449219 2.06242187 11.34257812 2 12 C1.01 11.34 0.02 10.68 -1 10 C-1.328125 8.125 -1.328125 8.125 -1.25 6 C-1.22679687 4.948125 -1.22679687 4.948125 -1.203125 3.875 C-1 2 -1 2 0 0 Z " fill="#526778" transform="translate(323,161)"/>
<path d="M0 0 C0.33 0.99 0.66 1.98 1 3 C-1.00579792 5.71372659 -2.17275223 6.03939963 -5.5625 6.8125 C-6.696875 6.874375 -7.83125 6.93625 -9 7 C-9.66 6.34 -10.32 5.68 -11 5 C-8.29120665 3.64560332 -5.99066732 3.93498549 -3 4 C-2.67 3.01 -2.34 2.02 -2 1 C-1.34 0.67 -0.68 0.34 0 0 Z " fill="#506676" transform="translate(292,168)"/>
<path d="M0 0 C2.97 0.495 2.97 0.495 6 1 C6 1.66 6 2.32 6 3 C7.32 3 8.64 3 10 3 C10 2.34 10 1.68 10 1 C10.66 1 11.32 1 12 1 C12 2.65 12 4.3 12 6 C10.55903414 5.57405412 9.12231288 5.13373367 7.6875 4.6875 C6.88699219 4.44386719 6.08648437 4.20023438 5.26171875 3.94921875 C2.90035427 2.95817977 1.66120007 1.91925057 0 0 Z " fill="#4E6574" transform="translate(264,208)"/>
<path d="M0 0 C1.051875 1.1446875 1.051875 1.1446875 2.125 2.3125 C4.96352604 4.96590478 7.46949051 6.44000743 11 8 C9.02 8.99 9.02 8.99 7 10 C4.0625 8.375 4.0625 8.375 1 6 C0.125 2.75 0.125 2.75 0 0 Z " fill="#556C7A" transform="translate(238,199)"/>
<path d="M0 0 C-0.33 1.32 -0.66 2.64 -1 4 C-6.75 4.125 -6.75 4.125 -9 3 C-9 2.34 -9 1.68 -9 1 C-5.92677456 0.08941469 -3.19902639 -0.08886184 0 0 Z " fill="#0F3956" transform="translate(311,169)"/>
<path d="M0 0 C-3.7559214 3.42931954 -8.23466745 4.56429083 -13 6 C-11.2109375 2.15625 -11.2109375 2.15625 -9.3125 0.75 C-6.16454282 -0.27095909 -3.28456632 -0.12632947 0 0 Z " fill="#506572" transform="translate(310,282)"/>
<path d="M0 0 C3.47487469 -0.39712854 4.67533499 -0.25161538 7.5 1.9375 C8.325 2.618125 9.15 3.29875 10 4 C12.68507329 4.78946609 12.68507329 4.78946609 15 5 C15 5.33 15 5.66 15 6 C8.89357521 6.78287497 4.99540421 4.10825151 0 1 C0 0.67 0 0.34 0 0 Z " fill="#657783" transform="translate(281,216)"/>
<path d="M0 0 C2.625 0.375 2.625 0.375 5 1 C2.47211993 3.79872437 0.79588866 5.45773019 -3 6 C-2.42655063 3.13275314 -2.1385485 2.1385485 0 0 Z " fill="#2B4961" transform="translate(292,201)"/>
<path d="M0 0 C4.455 0.99 4.455 0.99 9 2 C9 3.32 9 4.64 9 6 C5.9168649 4.80100302 2.93720508 3.52299523 0 2 C0 1.34 0 0.68 0 0 Z " fill="#4F6472" transform="translate(258,272)"/>
<path d="M0 0 C0.66 0 1.32 0 2 0 C2 0.66 2 1.32 2 2 C4.65228812 3.07525194 7.28368454 4.09456151 10 5 C10 5.99 10 6.98 10 8 C5.60316512 6.80086322 2.90159066 5.5711885 0 2 C0 1.34 0 0.68 0 0 Z " fill="#475E6B" transform="translate(224,253)"/>
<path d="M0 0 C0.33 0.66 0.66 1.32 1 2 C-1.19566645 8.47143795 -1.19566645 8.47143795 -4.1875 10.4375 C-5.0846875 10.7159375 -5.0846875 10.7159375 -6 11 C-4.54955729 6.89041233 -2.48889248 3.56741255 0 0 Z " fill="#546773" transform="translate(257,131)"/>
<path d="M0 0 C-0.99 1.485 -0.99 1.485 -2 3 C-2.66 3 -3.32 3 -4 3 C-4 3.66 -4 4.32 -4 5 C-5.65 5 -7.3 5 -9 5 C-9 4.34 -9 3.68 -9 3 C-6.04341306 0.15291628 -4.05047276 -0.3375394 0 0 Z " fill="#4F6271" transform="translate(233,185)"/>
<path d="M0 0 C0.99 0.66 1.98 1.32 3 2 C3 2.66 3 3.32 3 4 C0.1528258 5.93607846 -1.15417196 5.98954766 -4.6875 5.75 C-5.780625 5.5025 -6.87375 5.255 -8 5 C-8.33 4.34 -8.66 3.68 -9 3 C-6.36 3 -3.72 3 -1 3 C-0.67 2.01 -0.34 1.02 0 0 Z " fill="#546677" transform="translate(311,169)"/>
<path d="M0 0 C-0.33 1.32 -0.66 2.64 -1 4 C-2.98 4.33 -4.96 4.66 -7 5 C-6.6875 3.0625 -6.6875 3.0625 -6 1 C-3 0 -3 0 0 0 Z " fill="#0B3D5E" transform="translate(311,161)"/>
<path d="M0 0 C3.465 1.485 3.465 1.485 7 3 C6.01 3.99 5.02 4.98 4 6 C1.525 5.01 1.525 5.01 -1 4 C-1 1 -1 1 0 0 Z " fill="#3C6074" transform="translate(315,273)"/>
<path d="M0 0 C3.14737182 0.69941596 6.02588876 1.76078698 9 3 C9 3.99 9 4.98 9 6 C2.35384615 4.52307692 2.35384615 4.52307692 0.5625 1.875 C0.376875 1.25625 0.19125 0.6375 0 0 Z " fill="#4A6172" transform="translate(241,263)"/>
<path d="M0 0 C2.31 0.33 4.62 0.66 7 1 C6.67 1.99 6.34 2.98 6 4 C4.35 4 2.7 4 1 4 C0.67 2.68 0.34 1.36 0 0 Z " fill="#0D3D60" transform="translate(283,162)"/>
<path d="M0 0 C0 0.99 0 1.98 0 3 C-2 4.6875 -2 4.6875 -4 6 C-4.66 5.67 -5.32 5.34 -6 5 C-5.67 3.68 -5.34 2.36 -5 1 C-3.35 0.67 -1.7 0.34 0 0 Z " fill="#5B727D" transform="translate(352,259)"/>
<path d="M0 0 C0.99 0.495 0.99 0.495 2 1 C1.34 1.66 0.68 2.32 0 3 C0 2.01 0 1.02 0 0 Z M0 3 C-1.3125 4.5 -1.3125 4.5 -3 6 C-3.99 6 -4.98 6 -6 6 C-6 5.01 -6 4.02 -6 3 C-3.50907189 1.75453595 -2.58919267 2.2232422 0 3 Z " fill="#13384C" transform="translate(264,128)"/>
<path d="M0 0 C-6.27692308 4.06153846 -6.27692308 4.06153846 -9.9375 3.75 C-10.618125 3.5025 -11.29875 3.255 -12 3 C-3.7826087 -1.26086957 -3.7826087 -1.26086957 0 0 Z " fill="#617A86" transform="translate(319,221)"/>
<path d="M0 0 C0 0.66 0 1.32 0 2 C-3.375 2.625 -3.375 2.625 -7 3 C-7.66 2.34 -8.32 1.68 -9 1 C-5.8035914 -0.06546953 -3.34252724 -0.07427838 0 0 Z " fill="#4A5E69" transform="translate(311,159)"/>
<path d="M0 0 C-1.98 1.32 -3.96 2.64 -6 4 C-6.66 3.67 -7.32 3.34 -8 3 C-7.67 2.01 -7.34 1.02 -7 0 C-2.25 -1.125 -2.25 -1.125 0 0 Z " fill="#17394F" transform="translate(341,215)"/>
<path d="M0 0 C0.66 0 1.32 0 2 0 C2.33 1.98 2.66 3.96 3 6 C1.68 6 0.36 6 -1 6 C-0.67 4.02 -0.34 2.04 0 0 Z " fill="#0D354D" transform="translate(355,195)"/>
<path d="M0 0 C3.625 0.375 3.625 0.375 7 1 C6.34 1.66 5.68 2.32 5 3 C1.375 2.625 1.375 2.625 -2 2 C-1.34 1.34 -0.68 0.68 0 0 Z " fill="#4B6070" transform="translate(327,172)"/>
<path d="M0 0 C2.475 0.99 2.475 0.99 5 2 C3.1875 3.5625 3.1875 3.5625 1 5 C0.01 4.67 -0.98 4.34 -2 4 C-2 2 -2 2 0 0 Z " fill="#426277" transform="translate(266,216)"/>
<path d="M0 0 C3.37462715 0.54723683 5.08235 1.0549 8 3 C5.39417629 3.93065133 4.35801776 4.14917407 1.75 3.0625 C1.1725 2.711875 0.595 2.36125 0 2 C0 1.34 0 0.68 0 0 Z " fill="#3D5760" transform="translate(247,199)"/>
</svg>
